<?xml version="1.0" encoding="utf-8"?>
<!-- Generator: Adobe Illustrator 21.1.0, SVG Export Plug-In . SVG Version: 6.00 Build 0)  -->
<svg version="1.1" id="Layer_1" xmlns="http://www.w3.org/2000/svg" xmlns:xlink="http://www.w3.org/1999/xlink" x="0px" y="0px"
	 viewBox="0 0 200 200" style="enable-background:new 0 0 200 200;" xml:space="preserve">
<style type="text/css">
	.st0{fill:#1A1A1A;}
	.st1{fill:url(#SVGID_1_);}
	.st2{fill:url(#SVGID_2_);}
	.st3{fill:url(#SVGID_3_);}
	.st4{fill:url(#SVGID_4_);}
	.st5{fill:url(#SVGID_5_);}
	.st6{fill:url(#SVGID_6_);}
	.st7{fill:#FFFFFF;}
	.st8{fill:url(#SVGID_7_);}
	.st9{fill:url(#SVGID_8_);}
	.st10{fill:#DE2925;}
	.st11{opacity:0.2;}
	.st12{fill:url(#SVGID_9_);}
	.st13{fill-rule:evenodd;clip-rule:evenodd;fill:#BC081C;}
	.st14{fill-rule:evenodd;clip-rule:evenodd;fill:#FFFFFF;}
	.st15{fill:url(#SVGID_10_);}
	.st16{fill:url(#SVGID_11_);}
	.st17{fill:url(#SVGID_12_);}
	.st18{fill:url(#SVGID_13_);}
	.st19{fill:#020202;}
	.st20{fill:url(#SVGID_14_);}
	.st21{fill:url(#SVGID_15_);}
	.st22{clip-path:url(#SVGID_17_);}
	.st23{fill:#DB4639;}
	.st24{fill:url(#SVGID_18_);}
	.st25{fill:url(#SVGID_19_);}
	.st26{fill:url(#SVGID_20_);}
	.st27{fill:#007BB5;}
	.st28{fill:url(#SVGID_21_);}
	.st29{fill:#1DA1F2;}
	.st30{fill:none;}
</style>
<g>
	<radialGradient id="SVGID_1_" cx="101.5112" cy="244.2453" r="268.0182" gradientUnits="userSpaceOnUse">
		<stop  offset="0" style="stop-color:#3B5998"/>
		<stop  offset="0.301" style="stop-color:#3B5998"/>
		<stop  offset="1" style="stop-color:#5F83CF"/>
	</radialGradient>
	<path class="st1" d="M199.5,158.6c0,22.6-18.3,40.9-40.9,40.9H41.4c-22.6,0-40.9-18.3-40.9-40.9V41.4c0-22.6,18.3-40.9,40.9-40.9
		h117.2c22.6,0,40.9,18.3,40.9,40.9V158.6z"/>
	<path class="st7" d="M153.5,55.2h18.4V26.4h-22.8l0,0h-4.7c0,0-17.3-0.4-28.3,13.9c0,0-7.5,7.1-7.6,27.8h0v21.6H81.2v30.6h27.2
		v79.1h31.4v-79.1h27l3.8-30.6h-30.7V68.1h0C139.8,65.7,140.9,55,153.5,55.2z"/>
</g>
</svg>
