<?xml version="1.0" encoding="utf-8"?>
<!-- Generator: Adobe Illustrator 21.1.0, SVG Export Plug-In . SVG Version: 6.00 Build 0)  -->
<svg version="1.1" id="Layer_1" xmlns="http://www.w3.org/2000/svg" xmlns:xlink="http://www.w3.org/1999/xlink" x="0px" y="0px"
	 viewBox="0 0 200 200" style="enable-background:new 0 0 200 200;" xml:space="preserve">
<style type="text/css">
	.st0{fill:#1A1A1A;}
	.st1{fill:url(#SVGID_1_);}
	.st2{fill:url(#SVGID_2_);}
	.st3{fill:url(#SVGID_3_);}
	.st4{fill:url(#SVGID_4_);}
	.st5{fill:url(#SVGID_5_);}
	.st6{fill:url(#SVGID_6_);}
	.st7{fill:#FFFFFF;}
	.st8{fill:url(#SVGID_7_);}
	.st9{fill:url(#SVGID_8_);}
	.st10{fill:#DE2925;}
	.st11{opacity:0.2;}
	.st12{fill:url(#SVGID_9_);}
	.st13{fill-rule:evenodd;clip-rule:evenodd;fill:#BC081C;}
	.st14{fill-rule:evenodd;clip-rule:evenodd;fill:#FFFFFF;}
	.st15{fill:url(#SVGID_10_);}
	.st16{fill:url(#SVGID_11_);}
	.st17{fill:url(#SVGID_12_);}
	.st18{fill:url(#SVGID_13_);}
	.st19{fill:#020202;}
	.st20{fill:url(#SVGID_14_);}
	.st21{fill:url(#SVGID_15_);}
	.st22{clip-path:url(#SVGID_17_);}
	.st23{fill:#DB4639;}
	.st24{fill:url(#SVGID_18_);}
	.st25{fill:url(#SVGID_19_);}
	.st26{fill:url(#SVGID_20_);}
	.st27{fill:#007BB5;}
	.st28{fill:url(#SVGID_21_);}
	.st29{fill:#1DA1F2;}
	.st30{fill:none;}
</style>
<g>
	<radialGradient id="SVGID_1_" cx="58.7938" cy="214.9108" r="263.6981" gradientUnits="userSpaceOnUse">
		<stop  offset="9.693880e-02" style="stop-color:#FFD879"/>
		<stop  offset="0.1539" style="stop-color:#FCCB76"/>
		<stop  offset="0.2583" style="stop-color:#F5AA6C"/>
		<stop  offset="0.3976" style="stop-color:#E9755E"/>
		<stop  offset="0.449" style="stop-color:#E45F58"/>
		<stop  offset="0.6786" style="stop-color:#D22A9C"/>
		<stop  offset="1" style="stop-color:#6968DF"/>
	</radialGradient>
	<path class="st1" d="M199.5,158.6c0,22.6-18.3,40.9-40.9,40.9H41.4c-22.6,0-40.9-18.3-40.9-40.9V41.4c0-22.6,18.3-40.9,40.9-40.9
		h117.2c22.6,0,40.9,18.3,40.9,40.9V158.6z"/>
	<g>
		<path class="st7" d="M128.8,25H71.2C45.7,25,25,45.7,25,71.2v57.6c0,25.5,20.7,46.2,46.2,46.2h57.6c25.5,0,46.2-20.7,46.2-46.2
			V71.2C175,45.7,154.3,25,128.8,25z M160.6,123.3c0,20.6-16.7,37.4-37.4,37.4H76.7c-20.6,0-37.4-16.7-37.4-37.4V76.7
			c0-20.6,16.7-37.4,37.4-37.4h46.5c20.6,0,37.4,16.7,37.4,37.4V123.3z"/>
		<path class="st7" d="M102,60.7c-21.8,0-39.5,17.7-39.5,39.5c0,21.8,17.7,39.5,39.5,39.5c21.8,0,39.5-17.7,39.5-39.5
			C141.5,78.4,123.8,60.7,102,60.7z M102,124c-13.1,0-23.8-10.7-23.8-23.8c0-13.1,10.6-23.8,23.8-23.8c13.1,0,23.8,10.6,23.8,23.8
			C125.8,113.4,115.1,124,102,124z"/>
		<ellipse class="st7" cx="138.8" cy="60.1" rx="10.1" ry="10.1"/>
	</g>
</g>
</svg>
