<?xml version="1.0" encoding="utf-8"?>
<!-- Generator: Adobe Illustrator 21.1.0, SVG Export Plug-In . SVG Version: 6.00 Build 0)  -->
<svg version="1.1" id="Layer_1" xmlns="http://www.w3.org/2000/svg" xmlns:xlink="http://www.w3.org/1999/xlink" x="0px" y="0px"
	 viewBox="0 0 200 200" style="enable-background:new 0 0 200 200;" xml:space="preserve">
<style type="text/css">
	.st0{fill:#1A1A1A;}
	.st1{fill:url(#SVGID_1_);}
	.st2{fill:url(#SVGID_2_);}
	.st3{fill:url(#SVGID_3_);}
	.st4{fill:url(#SVGID_4_);}
	.st5{fill:url(#SVGID_5_);}
	.st6{fill:url(#SVGID_6_);}
	.st7{fill:#FFFFFF;}
	.st8{fill:url(#SVGID_7_);}
	.st9{fill:url(#SVGID_8_);}
	.st10{fill:#DE2925;}
	.st11{opacity:0.2;}
	.st12{fill:url(#SVGID_9_);}
	.st13{fill-rule:evenodd;clip-rule:evenodd;fill:#BC081C;}
	.st14{fill-rule:evenodd;clip-rule:evenodd;fill:#FFFFFF;}
	.st15{fill:url(#SVGID_10_);}
	.st16{fill:url(#SVGID_11_);}
	.st17{fill:url(#SVGID_12_);}
	.st18{fill:url(#SVGID_13_);}
	.st19{fill:#020202;}
	.st20{fill:url(#SVGID_14_);}
	.st21{fill:url(#SVGID_15_);}
	.st22{clip-path:url(#SVGID_17_);}
	.st23{fill:#DB4639;}
	.st24{fill:url(#SVGID_18_);}
	.st25{fill:url(#SVGID_19_);}
	.st26{fill:url(#SVGID_20_);}
	.st27{fill:#007BB5;}
	.st28{fill:url(#SVGID_21_);}
	.st29{fill:#1DA1F2;}
	.st30{fill:none;}
</style>
<g>
	<path class="st29" d="M199.5,158.6c0,22.6-18.3,40.9-40.9,40.9H41.4c-22.6,0-40.9-18.3-40.9-40.9V41.4c0-22.6,18.3-40.9,40.9-40.9
		h117.2c22.6,0,40.9,18.3,40.9,40.9V158.6z"/>
	<path class="st7" d="M76.3,157.7c52.3,0,80.9-43.3,80.9-80.9c0-1.2,0-2.5-0.1-3.7c5.6-4,10.4-9,14.2-14.7
		c-5.1,2.3-10.6,3.8-16.3,4.5c5.9-3.5,10.4-9.1,12.5-15.7c-5.5,3.2-11.6,5.6-18.1,6.9c-5.2-5.5-12.6-9-20.8-9
		c-15.7,0-28.4,12.7-28.4,28.4c0,2.2,0.2,4.4,0.7,6.5c-23.6-1.2-44.6-12.5-58.6-29.7c-2.4,4.2-3.8,9.1-3.8,14.3
		c0,9.9,5,18.6,12.7,23.7c-4.7-0.1-9.1-1.4-12.9-3.6c0,0.1,0,0.2,0,0.4c0,13.8,9.8,25.3,22.8,27.9c-2.4,0.6-4.9,1-7.5,1
		c-1.8,0-3.6-0.2-5.3-0.5c3.6,11.3,14.1,19.5,26.6,19.8c-9.7,7.6-22,12.2-35.3,12.2c-2.3,0-4.5-0.1-6.8-0.4
		C45.3,153,60.2,157.7,76.3,157.7"/>
</g>
</svg>
