<?xml version="1.0" encoding="utf-8"?>
<!-- Generator: Adobe Illustrator 21.1.0, SVG Export Plug-In . SVG Version: 6.00 Build 0)  -->
<svg version="1.1" id="Layer_1" xmlns="http://www.w3.org/2000/svg" xmlns:xlink="http://www.w3.org/1999/xlink" x="0px" y="0px"
	 viewBox="0 0 200 200" style="enable-background:new 0 0 200 200;" xml:space="preserve">
<style type="text/css">
	.st0{fill:#1A1A1A;}
	.st1{fill:url(#SVGID_1_);}
	.st2{fill:url(#SVGID_2_);}
	.st3{fill:url(#SVGID_3_);}
	.st4{fill:url(#SVGID_4_);}
	.st5{fill:url(#SVGID_5_);}
	.st6{fill:url(#SVGID_6_);}
	.st7{fill:#FFFFFF;}
	.st8{fill:url(#SVGID_7_);}
	.st9{fill:url(#SVGID_8_);}
	.st10{fill:#DE2925;}
	.st11{opacity:0.2;}
	.st12{fill:url(#SVGID_9_);}
	.st13{fill-rule:evenodd;clip-rule:evenodd;fill:#BC081C;}
	.st14{fill-rule:evenodd;clip-rule:evenodd;fill:#FFFFFF;}
	.st15{fill:url(#SVGID_10_);}
	.st16{fill:url(#SVGID_11_);}
	.st17{fill:url(#SVGID_12_);}
	.st18{fill:url(#SVGID_13_);}
	.st19{fill:#020202;}
	.st20{fill:url(#SVGID_14_);}
	.st21{fill:url(#SVGID_15_);}
	.st22{clip-path:url(#SVGID_17_);}
	.st23{fill:#DB4639;}
	.st24{fill:url(#SVGID_18_);}
	.st25{fill:url(#SVGID_19_);}
	.st26{fill:url(#SVGID_20_);}
	.st27{fill:#007BB5;}
	.st28{fill:url(#SVGID_21_);}
	.st29{fill:#1DA1F2;}
	.st30{fill:none;}
</style>
<g>
	<radialGradient id="SVGID_1_" cx="100" cy="100" r="99.5004" gradientUnits="userSpaceOnUse">
		<stop  offset="0.1684" style="stop-color:#C2181E"/>
		<stop  offset="0.7653" style="stop-color:#DE2925"/>
	</radialGradient>
	<path class="st1" d="M199.5,158.6c0,22.6-18.3,40.9-40.9,40.9H41.4c-22.6,0-40.9-18.3-40.9-40.9V41.4c0-22.6,18.3-40.9,40.9-40.9
		h117.2c22.6,0,40.9,18.3,40.9,40.9V158.6z"/>
	<path class="st7" d="M174.8,118c0,18.9-6.4,34.1-25.3,34.1h-97c-18.8,0-27.3-15.3-27.3-34.1V82c0-18.9,7.7-34.1,26.5-34.1h98.6
		c18.9,0,24.5,15.3,24.5,34.1V118z"/>
	<polygon class="st10" points="85,79.6 125.7,100.9 85,122.1 	"/>
	<polygon class="st11" points="85,79.9 120.4,103.6 125.7,100.9 88.2,81.3 85,79.9 	"/>
</g>
</svg>
